<?xml version="1.0" encoding="utf-8" standalone="no"?>
<!DOCTYPE svg PUBLIC "-//W3C//DTD SVG 1.1//EN"
  "http://www.w3.org/Graphics/SVG/1.1/DTD/svg11.dtd">
<svg xmlns:xlink="http://www.w3.org/1999/xlink" width="460.8pt" height="345.6pt" viewBox="0 0 460.8 345.6" xmlns="http://www.w3.org/2000/svg" version="1.1">
 <metadata>
  <rdf:RDF xmlns:dc="http://purl.org/dc/elements/1.1/" xmlns:cc="http://creativecommons.org/ns#" xmlns:rdf="http://www.w3.org/1999/02/22-rdf-syntax-ns#">
   <cc:Work>
    <dc:type rdf:resource="http://purl.org/dc/dcmitype/StillImage"/>
    <dc:date>2023-12-12T21:18:12.748793</dc:date>
    <dc:format>image/svg+xml</dc:format>
    <dc:creator>
     <cc:Agent>
      <dc:title>Matplotlib v3.7.1, https://matplotlib.org/</dc:title>
     </cc:Agent>
    </dc:creator>
   </cc:Work>
  </rdf:RDF>
 </metadata>
 <defs>
  <style type="text/css">*{stroke-linejoin: round; stroke-linecap: butt}</style>
 </defs>
 <g id="figure_1">
  <g id="patch_1">
   <path d="M 0 345.6 
L 460.8 345.6 
L 460.8 0 
L 0 0 
z
" style="fill: #ffffff"/>
  </g>
  <g id="axes_1">
   <g id="patch_2">
    <path d="M 57.6 307.584 
L 414.72 307.584 
L 414.72 41.472 
L 57.6 41.472 
z
" style="fill: #ffffff"/>
   </g>
   <g id="patch_3">
    <path d="M 381.497199 166.162602 
Q 378.113932 153.488284 375.019016 141.894177 
" clip-path="url(#p2211791322)" style="fill: none; stroke: #000000; stroke-linecap: round"/>
    <path d="M 374.118309 146.274671 
L 375.019016 141.894177 
L 377.982987 145.243039 
z
" clip-path="url(#p2211791322)" style="stroke: #000000; stroke-linecap: round"/>
   </g>
   <g id="patch_4">
    <path d="M 364.745782 128.587334 
Q 304.327963 98.505252 244.910983 68.921489 
" clip-path="url(#p2211791322)" style="fill: none; stroke: #000000; stroke-linecap: round"/>
    <path d="M 247.600274 72.494682 
L 244.910983 68.921489 
L 249.383113 68.913972 
z
" clip-path="url(#p2211791322)" style="stroke: #000000; stroke-linecap: round"/>
   </g>
   <g id="patch_5">
    <path d="M 332.755664 92.912113 
Q 316.569581 84.853048 301.384337 77.292302 
" clip-path="url(#p2211791322)" style="fill: none; stroke: #000000; stroke-linecap: round"/>
    <path d="M 304.073628 80.865496 
L 301.384337 77.292302 
L 305.856467 77.284785 
z
" clip-path="url(#p2211791322)" style="stroke: #000000; stroke-linecap: round"/>
   </g>
   <g id="patch_6">
    <path d="M 331.943714 95.502566 
Q 260.097261 84.853353 189.356761 74.368066 
" clip-path="url(#p2211791322)" style="fill: none; stroke: #000000; stroke-linecap: round"/>
    <path d="M 193.020292 76.932932 
L 189.356761 74.368066 
L 193.606772 72.976161 
z
" clip-path="url(#p2211791322)" style="stroke: #000000; stroke-linecap: round"/>
   </g>
   <g id="patch_7">
    <path d="M 331.849413 96.771968 
Q 236.160472 96.771968 141.589566 96.771968 
" clip-path="url(#p2211791322)" style="fill: none; stroke: #000000; stroke-linecap: round"/>
    <path d="M 145.589566 98.771968 
L 141.589566 96.771968 
L 145.589566 94.771968 
z
" clip-path="url(#p2211791322)" style="stroke: #000000; stroke-linecap: round"/>
   </g>
   <g id="patch_8">
    <path d="M 244.436369 67.118916 
Q 288.333809 80.66812 331.162945 93.887586 
" clip-path="url(#p2211791322)" style="fill: none; stroke: #000000; stroke-linecap: round"/>
    <path d="M 327.93072 90.796839 
L 331.162945 93.887586 
L 326.751012 94.618919 
z
" clip-path="url(#p2211791322)" style="stroke: #000000; stroke-linecap: round"/>
   </g>
   <g id="patch_9">
    <path d="M 228.408649 68.423765 
Q 167.990836 98.505845 108.573861 128.089608 
" clip-path="url(#p2211791322)" style="fill: none; stroke: #000000; stroke-linecap: round"/>
    <path d="M 113.045991 128.097124 
L 108.573861 128.089608 
L 111.263152 124.516414 
z
" clip-path="url(#p2211791322)" style="stroke: #000000; stroke-linecap: round"/>
   </g>
   <g id="patch_10">
    <path d="M 229.217869 69.737367 
Q 162.376812 119.544742 96.43226 168.684076 
" clip-path="url(#p2211791322)" style="fill: none; stroke: #000000; stroke-linecap: round"/>
    <path d="M 100.834721 167.897737 
L 96.43226 168.684076 
L 98.444666 164.690303 
z
" clip-path="url(#p2211791322)" style="stroke: #000000; stroke-linecap: round"/>
   </g>
   <g id="patch_11">
    <path d="M 102.055517 140.810621 
Q 115.817287 192.364689 129.290707 242.838547 
" clip-path="url(#p2211791322)" style="fill: none; stroke: #000000; stroke-linecap: round"/>
    <path d="M 130.191415 238.458053 
L 129.290707 242.838547 
L 126.326737 239.489685 
z
" clip-path="url(#p2211791322)" style="stroke: #000000; stroke-linecap: round"/>
   </g>
   <g id="patch_12">
    <path d="M 106.76904 137.622747 
Q 196.228126 204.284187 284.790707 270.277587 
" clip-path="url(#p2211791322)" style="fill: none; stroke: #000000; stroke-linecap: round"/>
    <path d="M 282.778301 266.283814 
L 284.790707 270.277587 
L 280.388245 269.491249 
z
" clip-path="url(#p2211791322)" style="stroke: #000000; stroke-linecap: round"/>
   </g>
   <g id="patch_13">
    <path d="M 107.575651 136.306848 
Q 220.165852 192.36562 331.755215 247.926072 
" clip-path="url(#p2211791322)" style="fill: none; stroke: #000000; stroke-linecap: round"/>
    <path d="M 329.065924 244.352878 
L 331.755215 247.926072 
L 327.283085 247.933588 
z
" clip-path="url(#p2211791322)" style="stroke: #000000; stroke-linecap: round"/>
   </g>
   <g id="patch_14">
    <path d="M 90.822801 182.893406 
Q 94.206068 195.56772 97.300984 207.161825 
" clip-path="url(#p2211791322)" style="fill: none; stroke: #000000; stroke-linecap: round"/>
    <path d="M 98.201691 202.781331 
L 97.300984 207.161825 
L 94.337013 203.812963 
z
" clip-path="url(#p2211791322)" style="stroke: #000000; stroke-linecap: round"/>
   </g>
   <g id="patch_15">
    <path d="M 94.369531 180.973692 
Q 134.137011 225.322892 173.15809 268.839696 
" clip-path="url(#p2211791322)" style="fill: none; stroke: #000000; stroke-linecap: round"/>
    <path d="M 171.976718 264.526419 
L 173.15809 268.839696 
L 168.998645 267.196827 
z
" clip-path="url(#p2211791322)" style="stroke: #000000; stroke-linecap: round"/>
   </g>
   <g id="patch_16">
    <path d="M 95.531877 179.701012 
Q 162.372938 229.508378 228.317494 278.647704 
" clip-path="url(#p2211791322)" style="fill: none; stroke: #000000; stroke-linecap: round"/>
    <path d="M 226.305087 274.653931 
L 228.317494 278.647704 
L 223.915032 277.861365 
z
" clip-path="url(#p2211791322)" style="stroke: #000000; stroke-linecap: round"/>
   </g>
   <g id="matplotlib.axis_1">
    <g id="xtick_1"/>
    <g id="xtick_2"/>
    <g id="xtick_3"/>
    <g id="xtick_4"/>
    <g id="xtick_5"/>
   </g>
   <g id="matplotlib.axis_2">
    <g id="ytick_1"/>
    <g id="ytick_2"/>
    <g id="ytick_3"/>
    <g id="ytick_4"/>
    <g id="ytick_5"/>
   </g>
   <g id="PathCollection_1">
    <defs>
     <path id="C0_0_23f43177d5" d="M 0 8.660254 
C 2.296726 8.660254 4.499694 7.747755 6.123724 6.123724 
C 7.747755 4.499694 8.660254 2.296726 8.660254 -0 
C 8.660254 -2.296726 7.747755 -4.499694 6.123724 -6.123724 
C 4.499694 -7.747755 2.296726 -8.660254 0 -8.660254 
C -2.296726 -8.660254 -4.499694 -7.747755 -6.123724 -6.123724 
C -7.747755 -4.499694 -8.660254 -2.296726 -8.660254 0 
C -8.660254 2.296726 -7.747755 4.499694 -6.123724 6.123724 
C -4.499694 7.747755 -2.296726 8.660254 0 8.660254 
z
"/>
    </defs>
    <g clip-path="url(#p2211791322)">
     <use xlink:href="#C0_0_23f43177d5" x="383.730248" y="174.528" style="fill: #a6c9c6; stroke: #a6c9c6"/>
    </g>
    <g clip-path="url(#p2211791322)">
     <use xlink:href="#C0_0_23f43177d5" x="372.497127" y="132.446736" style="fill: #a6c9c6; stroke: #a6c9c6"/>
    </g>
    <g clip-path="url(#p2211791322)">
     <use xlink:href="#C0_0_23f43177d5" x="340.507921" y="96.771968" style="fill: #a6c9c6; stroke: #a6c9c6"/>
    </g>
    <g clip-path="url(#p2211791322)">
     <use xlink:href="#C0_0_23f43177d5" x="292.632692" y="72.93485" style="fill: #9a682d; stroke: #9a682d"/>
    </g>
    <g clip-path="url(#p2211791322)">
     <use xlink:href="#C0_0_23f43177d5" x="236.159994" y="64.564364" style="fill: #9a682d; stroke: #9a682d"/>
    </g>
    <g clip-path="url(#p2211791322)">
     <use xlink:href="#C0_0_23f43177d5" x="179.687316" y="72.934844" style="fill: #9a682d; stroke: #9a682d"/>
    </g>
    <g clip-path="url(#p2211791322)">
     <use xlink:href="#C0_0_23f43177d5" x="131.812079" y="96.771968" style="fill: #9a682d; stroke: #9a682d"/>
    </g>
    <g clip-path="url(#p2211791322)">
     <use xlink:href="#C0_0_23f43177d5" x="99.822873" y="132.446732" style="fill: #9a682d; stroke: #9a682d"/>
    </g>
    <g clip-path="url(#p2211791322)">
     <use xlink:href="#C0_0_23f43177d5" x="88.589752" y="174.52801" style="fill: #b714e7; stroke: #b714e7"/>
    </g>
    <g clip-path="url(#p2211791322)">
     <use xlink:href="#C0_0_23f43177d5" x="99.822873" y="216.609264" style="fill: #b714e7; stroke: #b714e7"/>
    </g>
    <g clip-path="url(#p2211791322)">
     <use xlink:href="#C0_0_23f43177d5" x="131.81207" y="252.284025" style="fill: #b714e7; stroke: #b714e7"/>
    </g>
    <g clip-path="url(#p2211791322)">
     <use xlink:href="#C0_0_23f43177d5" x="179.68729" y="276.121143" style="fill: #b714e7; stroke: #b714e7"/>
    </g>
    <g clip-path="url(#p2211791322)">
     <use xlink:href="#C0_0_23f43177d5" x="236.160002" y="284.491636" style="fill: #b714e7; stroke: #b714e7"/>
    </g>
    <g clip-path="url(#p2211791322)">
     <use xlink:href="#C0_0_23f43177d5" x="292.63271" y="276.121143" style="fill: #b714e7; stroke: #b714e7"/>
    </g>
    <g clip-path="url(#p2211791322)">
     <use xlink:href="#C0_0_23f43177d5" x="340.507904" y="252.284045" style="fill: #b714e7; stroke: #b714e7"/>
    </g>
    <g clip-path="url(#p2211791322)">
     <use xlink:href="#C0_0_23f43177d5" x="372.497136" y="216.609261" style="fill: #b714e7; stroke: #b714e7"/>
    </g>
   </g>
   <g id="patch_17">
    <path d="M 57.6 307.584 
L 57.6 41.472 
" style="fill: none; stroke: #000000; stroke-width: 0.8; stroke-linejoin: miter; stroke-linecap: square"/>
   </g>
   <g id="patch_18">
    <path d="M 414.72 307.584 
L 414.72 41.472 
" style="fill: none; stroke: #000000; stroke-width: 0.8; stroke-linejoin: miter; stroke-linecap: square"/>
   </g>
   <g id="patch_19">
    <path d="M 57.6 307.584 
L 414.72 307.584 
" style="fill: none; stroke: #000000; stroke-width: 0.8; stroke-linejoin: miter; stroke-linecap: square"/>
   </g>
   <g id="patch_20">
    <path d="M 57.6 41.472 
L 414.72 41.472 
" style="fill: none; stroke: #000000; stroke-width: 0.8; stroke-linejoin: miter; stroke-linecap: square"/>
   </g>
   <g id="text_1">
    <g clip-path="url(#p2211791322)">
     <!-- Follow -->
     <g transform="translate(363.088846 134.102361) scale(0.06 -0.06)">
      <defs>
       <path id="DejaVuSans-46" d="M 628 4666 
L 3309 4666 
L 3309 4134 
L 1259 4134 
L 1259 2759 
L 3109 2759 
L 3109 2228 
L 1259 2228 
L 1259 0 
L 628 0 
L 628 4666 
z
" transform="scale(0.015625)"/>
       <path id="DejaVuSans-6f" d="M 1959 3097 
Q 1497 3097 1228 2736 
Q 959 2375 959 1747 
Q 959 1119 1226 758 
Q 1494 397 1959 397 
Q 2419 397 2687 759 
Q 2956 1122 2956 1747 
Q 2956 2369 2687 2733 
Q 2419 3097 1959 3097 
z
M 1959 3584 
Q 2709 3584 3137 3096 
Q 3566 2609 3566 1747 
Q 3566 888 3137 398 
Q 2709 -91 1959 -91 
Q 1206 -91 779 398 
Q 353 888 353 1747 
Q 353 2609 779 3096 
Q 1206 3584 1959 3584 
z
" transform="scale(0.015625)"/>
       <path id="DejaVuSans-6c" d="M 603 4863 
L 1178 4863 
L 1178 0 
L 603 0 
L 603 4863 
z
" transform="scale(0.015625)"/>
       <path id="DejaVuSans-77" d="M 269 3500 
L 844 3500 
L 1563 769 
L 2278 3500 
L 2956 3500 
L 3675 769 
L 4391 3500 
L 4966 3500 
L 4050 0 
L 3372 0 
L 2619 2869 
L 1863 0 
L 1184 0 
L 269 3500 
z
" transform="scale(0.015625)"/>
      </defs>
      <use xlink:href="#DejaVuSans-46"/>
      <use xlink:href="#DejaVuSans-6f" x="53.894531"/>
      <use xlink:href="#DejaVuSans-6c" x="115.076172"/>
      <use xlink:href="#DejaVuSans-6c" x="142.859375"/>
      <use xlink:href="#DejaVuSans-6f" x="170.642578"/>
      <use xlink:href="#DejaVuSans-77" x="231.824219"/>
     </g>
    </g>
   </g>
   <g id="text_2">
    <g clip-path="url(#p2211791322)">
     <!-- /api/user/follow -->
     <g transform="translate(360.731029 176.183625) scale(0.06 -0.06)">
      <defs>
       <path id="DejaVuSans-2f" d="M 1625 4666 
L 2156 4666 
L 531 -594 
L 0 -594 
L 1625 4666 
z
" transform="scale(0.015625)"/>
       <path id="DejaVuSans-61" d="M 2194 1759 
Q 1497 1759 1228 1600 
Q 959 1441 959 1056 
Q 959 750 1161 570 
Q 1363 391 1709 391 
Q 2188 391 2477 730 
Q 2766 1069 2766 1631 
L 2766 1759 
L 2194 1759 
z
M 3341 1997 
L 3341 0 
L 2766 0 
L 2766 531 
Q 2569 213 2275 61 
Q 1981 -91 1556 -91 
Q 1019 -91 701 211 
Q 384 513 384 1019 
Q 384 1609 779 1909 
Q 1175 2209 1959 2209 
L 2766 2209 
L 2766 2266 
Q 2766 2663 2505 2880 
Q 2244 3097 1772 3097 
Q 1472 3097 1187 3025 
Q 903 2953 641 2809 
L 641 3341 
Q 956 3463 1253 3523 
Q 1550 3584 1831 3584 
Q 2591 3584 2966 3190 
Q 3341 2797 3341 1997 
z
" transform="scale(0.015625)"/>
       <path id="DejaVuSans-70" d="M 1159 525 
L 1159 -1331 
L 581 -1331 
L 581 3500 
L 1159 3500 
L 1159 2969 
Q 1341 3281 1617 3432 
Q 1894 3584 2278 3584 
Q 2916 3584 3314 3078 
Q 3713 2572 3713 1747 
Q 3713 922 3314 415 
Q 2916 -91 2278 -91 
Q 1894 -91 1617 61 
Q 1341 213 1159 525 
z
M 3116 1747 
Q 3116 2381 2855 2742 
Q 2594 3103 2138 3103 
Q 1681 3103 1420 2742 
Q 1159 2381 1159 1747 
Q 1159 1113 1420 752 
Q 1681 391 2138 391 
Q 2594 391 2855 752 
Q 3116 1113 3116 1747 
z
" transform="scale(0.015625)"/>
       <path id="DejaVuSans-69" d="M 603 3500 
L 1178 3500 
L 1178 0 
L 603 0 
L 603 3500 
z
M 603 4863 
L 1178 4863 
L 1178 4134 
L 603 4134 
L 603 4863 
z
" transform="scale(0.015625)"/>
       <path id="DejaVuSans-75" d="M 544 1381 
L 544 3500 
L 1119 3500 
L 1119 1403 
Q 1119 906 1312 657 
Q 1506 409 1894 409 
Q 2359 409 2629 706 
Q 2900 1003 2900 1516 
L 2900 3500 
L 3475 3500 
L 3475 0 
L 2900 0 
L 2900 538 
Q 2691 219 2414 64 
Q 2138 -91 1772 -91 
Q 1169 -91 856 284 
Q 544 659 544 1381 
z
M 1991 3584 
L 1991 3584 
z
" transform="scale(0.015625)"/>
       <path id="DejaVuSans-73" d="M 2834 3397 
L 2834 2853 
Q 2591 2978 2328 3040 
Q 2066 3103 1784 3103 
Q 1356 3103 1142 2972 
Q 928 2841 928 2578 
Q 928 2378 1081 2264 
Q 1234 2150 1697 2047 
L 1894 2003 
Q 2506 1872 2764 1633 
Q 3022 1394 3022 966 
Q 3022 478 2636 193 
Q 2250 -91 1575 -91 
Q 1294 -91 989 -36 
Q 684 19 347 128 
L 347 722 
Q 666 556 975 473 
Q 1284 391 1588 391 
Q 1994 391 2212 530 
Q 2431 669 2431 922 
Q 2431 1156 2273 1281 
Q 2116 1406 1581 1522 
L 1381 1569 
Q 847 1681 609 1914 
Q 372 2147 372 2553 
Q 372 3047 722 3315 
Q 1072 3584 1716 3584 
Q 2034 3584 2315 3537 
Q 2597 3491 2834 3397 
z
" transform="scale(0.015625)"/>
       <path id="DejaVuSans-65" d="M 3597 1894 
L 3597 1613 
L 953 1613 
Q 991 1019 1311 708 
Q 1631 397 2203 397 
Q 2534 397 2845 478 
Q 3156 559 3463 722 
L 3463 178 
Q 3153 47 2828 -22 
Q 2503 -91 2169 -91 
Q 1331 -91 842 396 
Q 353 884 353 1716 
Q 353 2575 817 3079 
Q 1281 3584 2069 3584 
Q 2775 3584 3186 3129 
Q 3597 2675 3597 1894 
z
M 3022 2063 
Q 3016 2534 2758 2815 
Q 2500 3097 2075 3097 
Q 1594 3097 1305 2825 
Q 1016 2553 972 2059 
L 3022 2063 
z
" transform="scale(0.015625)"/>
       <path id="DejaVuSans-72" d="M 2631 2963 
Q 2534 3019 2420 3045 
Q 2306 3072 2169 3072 
Q 1681 3072 1420 2755 
Q 1159 2438 1159 1844 
L 1159 0 
L 581 0 
L 581 3500 
L 1159 3500 
L 1159 2956 
Q 1341 3275 1631 3429 
Q 1922 3584 2338 3584 
Q 2397 3584 2469 3576 
Q 2541 3569 2628 3553 
L 2631 2963 
z
" transform="scale(0.015625)"/>
       <path id="DejaVuSans-66" d="M 2375 4863 
L 2375 4384 
L 1825 4384 
Q 1516 4384 1395 4259 
Q 1275 4134 1275 3809 
L 1275 3500 
L 2222 3500 
L 2222 3053 
L 1275 3053 
L 1275 0 
L 697 0 
L 697 3053 
L 147 3053 
L 147 3500 
L 697 3500 
L 697 3744 
Q 697 4328 969 4595 
Q 1241 4863 1831 4863 
L 2375 4863 
z
" transform="scale(0.015625)"/>
      </defs>
      <use xlink:href="#DejaVuSans-2f"/>
      <use xlink:href="#DejaVuSans-61" x="33.691406"/>
      <use xlink:href="#DejaVuSans-70" x="94.970703"/>
      <use xlink:href="#DejaVuSans-69" x="158.447266"/>
      <use xlink:href="#DejaVuSans-2f" x="186.230469"/>
      <use xlink:href="#DejaVuSans-75" x="219.921875"/>
      <use xlink:href="#DejaVuSans-73" x="283.300781"/>
      <use xlink:href="#DejaVuSans-65" x="335.400391"/>
      <use xlink:href="#DejaVuSans-72" x="396.923828"/>
      <use xlink:href="#DejaVuSans-2f" x="438.037109"/>
      <use xlink:href="#DejaVuSans-66" x="471.728516"/>
      <use xlink:href="#DejaVuSans-6f" x="506.933594"/>
      <use xlink:href="#DejaVuSans-6c" x="568.115234"/>
      <use xlink:href="#DejaVuSans-6c" x="595.898438"/>
      <use xlink:href="#DejaVuSans-6f" x="623.681641"/>
      <use xlink:href="#DejaVuSans-77" x="684.863281"/>
     </g>
    </g>
   </g>
   <g id="text_3">
    <g clip-path="url(#p2211791322)">
     <!-- /api/user/follow -->
     <g transform="translate(349.497918 218.264886) scale(0.06 -0.06)">
      <use xlink:href="#DejaVuSans-2f"/>
      <use xlink:href="#DejaVuSans-61" x="33.691406"/>
      <use xlink:href="#DejaVuSans-70" x="94.970703"/>
      <use xlink:href="#DejaVuSans-69" x="158.447266"/>
      <use xlink:href="#DejaVuSans-2f" x="186.230469"/>
      <use xlink:href="#DejaVuSans-75" x="219.921875"/>
      <use xlink:href="#DejaVuSans-73" x="283.300781"/>
      <use xlink:href="#DejaVuSans-65" x="335.400391"/>
      <use xlink:href="#DejaVuSans-72" x="396.923828"/>
      <use xlink:href="#DejaVuSans-2f" x="438.037109"/>
      <use xlink:href="#DejaVuSans-66" x="471.728516"/>
      <use xlink:href="#DejaVuSans-6f" x="506.933594"/>
      <use xlink:href="#DejaVuSans-6c" x="568.115234"/>
      <use xlink:href="#DejaVuSans-6c" x="595.898438"/>
      <use xlink:href="#DejaVuSans-6f" x="623.681641"/>
      <use xlink:href="#DejaVuSans-77" x="684.863281"/>
     </g>
    </g>
   </g>
   <g id="text_4">
    <g clip-path="url(#p2211791322)">
     <!-- social_graph_redis_update_client -->
     <g transform="translate(243.174411 74.507038) scale(0.06 -0.06)">
      <defs>
       <path id="DejaVuSans-63" d="M 3122 3366 
L 3122 2828 
Q 2878 2963 2633 3030 
Q 2388 3097 2138 3097 
Q 1578 3097 1268 2742 
Q 959 2388 959 1747 
Q 959 1106 1268 751 
Q 1578 397 2138 397 
Q 2388 397 2633 464 
Q 2878 531 3122 666 
L 3122 134 
Q 2881 22 2623 -34 
Q 2366 -91 2075 -91 
Q 1284 -91 818 406 
Q 353 903 353 1747 
Q 353 2603 823 3093 
Q 1294 3584 2113 3584 
Q 2378 3584 2631 3529 
Q 2884 3475 3122 3366 
z
" transform="scale(0.015625)"/>
       <path id="DejaVuSans-5f" d="M 3263 -1063 
L 3263 -1509 
L -63 -1509 
L -63 -1063 
L 3263 -1063 
z
" transform="scale(0.015625)"/>
       <path id="DejaVuSans-67" d="M 2906 1791 
Q 2906 2416 2648 2759 
Q 2391 3103 1925 3103 
Q 1463 3103 1205 2759 
Q 947 2416 947 1791 
Q 947 1169 1205 825 
Q 1463 481 1925 481 
Q 2391 481 2648 825 
Q 2906 1169 2906 1791 
z
M 3481 434 
Q 3481 -459 3084 -895 
Q 2688 -1331 1869 -1331 
Q 1566 -1331 1297 -1286 
Q 1028 -1241 775 -1147 
L 775 -588 
Q 1028 -725 1275 -790 
Q 1522 -856 1778 -856 
Q 2344 -856 2625 -561 
Q 2906 -266 2906 331 
L 2906 616 
Q 2728 306 2450 153 
Q 2172 0 1784 0 
Q 1141 0 747 490 
Q 353 981 353 1791 
Q 353 2603 747 3093 
Q 1141 3584 1784 3584 
Q 2172 3584 2450 3431 
Q 2728 3278 2906 2969 
L 2906 3500 
L 3481 3500 
L 3481 434 
z
" transform="scale(0.015625)"/>
       <path id="DejaVuSans-68" d="M 3513 2113 
L 3513 0 
L 2938 0 
L 2938 2094 
Q 2938 2591 2744 2837 
Q 2550 3084 2163 3084 
Q 1697 3084 1428 2787 
Q 1159 2491 1159 1978 
L 1159 0 
L 581 0 
L 581 4863 
L 1159 4863 
L 1159 2956 
Q 1366 3272 1645 3428 
Q 1925 3584 2291 3584 
Q 2894 3584 3203 3211 
Q 3513 2838 3513 2113 
z
" transform="scale(0.015625)"/>
       <path id="DejaVuSans-64" d="M 2906 2969 
L 2906 4863 
L 3481 4863 
L 3481 0 
L 2906 0 
L 2906 525 
Q 2725 213 2448 61 
Q 2172 -91 1784 -91 
Q 1150 -91 751 415 
Q 353 922 353 1747 
Q 353 2572 751 3078 
Q 1150 3584 1784 3584 
Q 2172 3584 2448 3432 
Q 2725 3281 2906 2969 
z
M 947 1747 
Q 947 1113 1208 752 
Q 1469 391 1925 391 
Q 2381 391 2643 752 
Q 2906 1113 2906 1747 
Q 2906 2381 2643 2742 
Q 2381 3103 1925 3103 
Q 1469 3103 1208 2742 
Q 947 2381 947 1747 
z
" transform="scale(0.015625)"/>
       <path id="DejaVuSans-74" d="M 1172 4494 
L 1172 3500 
L 2356 3500 
L 2356 3053 
L 1172 3053 
L 1172 1153 
Q 1172 725 1289 603 
Q 1406 481 1766 481 
L 2356 481 
L 2356 0 
L 1766 0 
Q 1100 0 847 248 
Q 594 497 594 1153 
L 594 3053 
L 172 3053 
L 172 3500 
L 594 3500 
L 594 4494 
L 1172 4494 
z
" transform="scale(0.015625)"/>
       <path id="DejaVuSans-6e" d="M 3513 2113 
L 3513 0 
L 2938 0 
L 2938 2094 
Q 2938 2591 2744 2837 
Q 2550 3084 2163 3084 
Q 1697 3084 1428 2787 
Q 1159 2491 1159 1978 
L 1159 0 
L 581 0 
L 581 3500 
L 1159 3500 
L 1159 2956 
Q 1366 3272 1645 3428 
Q 1925 3584 2291 3584 
Q 2894 3584 3203 3211 
Q 3513 2838 3513 2113 
z
" transform="scale(0.015625)"/>
      </defs>
      <use xlink:href="#DejaVuSans-73"/>
      <use xlink:href="#DejaVuSans-6f" x="52.099609"/>
      <use xlink:href="#DejaVuSans-63" x="113.28125"/>
      <use xlink:href="#DejaVuSans-69" x="168.261719"/>
      <use xlink:href="#DejaVuSans-61" x="196.044922"/>
      <use xlink:href="#DejaVuSans-6c" x="257.324219"/>
      <use xlink:href="#DejaVuSans-5f" x="285.107422"/>
      <use xlink:href="#DejaVuSans-67" x="335.107422"/>
      <use xlink:href="#DejaVuSans-72" x="398.583984"/>
      <use xlink:href="#DejaVuSans-61" x="439.697266"/>
      <use xlink:href="#DejaVuSans-70" x="500.976562"/>
      <use xlink:href="#DejaVuSans-68" x="564.453125"/>
      <use xlink:href="#DejaVuSans-5f" x="627.832031"/>
      <use xlink:href="#DejaVuSans-72" x="677.832031"/>
      <use xlink:href="#DejaVuSans-65" x="716.695312"/>
      <use xlink:href="#DejaVuSans-64" x="778.21875"/>
      <use xlink:href="#DejaVuSans-69" x="841.695312"/>
      <use xlink:href="#DejaVuSans-73" x="869.478516"/>
      <use xlink:href="#DejaVuSans-5f" x="921.578125"/>
      <use xlink:href="#DejaVuSans-75" x="971.578125"/>
      <use xlink:href="#DejaVuSans-70" x="1034.957031"/>
      <use xlink:href="#DejaVuSans-64" x="1098.433594"/>
      <use xlink:href="#DejaVuSans-61" x="1161.910156"/>
      <use xlink:href="#DejaVuSans-74" x="1223.189453"/>
      <use xlink:href="#DejaVuSans-65" x="1262.398438"/>
      <use xlink:href="#DejaVuSans-5f" x="1323.921875"/>
      <use xlink:href="#DejaVuSans-63" x="1373.921875"/>
      <use xlink:href="#DejaVuSans-6c" x="1428.902344"/>
      <use xlink:href="#DejaVuSans-69" x="1456.685547"/>
      <use xlink:href="#DejaVuSans-65" x="1484.46875"/>
      <use xlink:href="#DejaVuSans-6e" x="1545.992188"/>
      <use xlink:href="#DejaVuSans-74" x="1609.371094"/>
     </g>
    </g>
   </g>
   <g id="text_5">
    <g clip-path="url(#p2211791322)">
     <!-- follow_server -->
     <g transform="translate(320.66339 98.344156) scale(0.06 -0.06)">
      <defs>
       <path id="DejaVuSans-76" d="M 191 3500 
L 800 3500 
L 1894 563 
L 2988 3500 
L 3597 3500 
L 2284 0 
L 1503 0 
L 191 3500 
z
" transform="scale(0.015625)"/>
      </defs>
      <use xlink:href="#DejaVuSans-66"/>
      <use xlink:href="#DejaVuSans-6f" x="35.205078"/>
      <use xlink:href="#DejaVuSans-6c" x="96.386719"/>
      <use xlink:href="#DejaVuSans-6c" x="124.169922"/>
      <use xlink:href="#DejaVuSans-6f" x="151.953125"/>
      <use xlink:href="#DejaVuSans-77" x="213.134766"/>
      <use xlink:href="#DejaVuSans-5f" x="294.921875"/>
      <use xlink:href="#DejaVuSans-73" x="344.921875"/>
      <use xlink:href="#DejaVuSans-65" x="397.021484"/>
      <use xlink:href="#DejaVuSans-72" x="458.544922"/>
      <use xlink:href="#DejaVuSans-76" x="499.658203"/>
      <use xlink:href="#DejaVuSans-65" x="558.837891"/>
      <use xlink:href="#DejaVuSans-72" x="620.361328"/>
     </g>
    </g>
   </g>
   <g id="text_6">
    <g clip-path="url(#p2211791322)">
     <!-- follow_with_username_server -->
     <g transform="translate(191.95265 66.136551) scale(0.06 -0.06)">
      <defs>
       <path id="DejaVuSans-6d" d="M 3328 2828 
Q 3544 3216 3844 3400 
Q 4144 3584 4550 3584 
Q 5097 3584 5394 3201 
Q 5691 2819 5691 2113 
L 5691 0 
L 5113 0 
L 5113 2094 
Q 5113 2597 4934 2840 
Q 4756 3084 4391 3084 
Q 3944 3084 3684 2787 
Q 3425 2491 3425 1978 
L 3425 0 
L 2847 0 
L 2847 2094 
Q 2847 2600 2669 2842 
Q 2491 3084 2119 3084 
Q 1678 3084 1418 2786 
Q 1159 2488 1159 1978 
L 1159 0 
L 581 0 
L 581 3500 
L 1159 3500 
L 1159 2956 
Q 1356 3278 1631 3431 
Q 1906 3584 2284 3584 
Q 2666 3584 2933 3390 
Q 3200 3197 3328 2828 
z
" transform="scale(0.015625)"/>
      </defs>
      <use xlink:href="#DejaVuSans-66"/>
      <use xlink:href="#DejaVuSans-6f" x="35.205078"/>
      <use xlink:href="#DejaVuSans-6c" x="96.386719"/>
      <use xlink:href="#DejaVuSans-6c" x="124.169922"/>
      <use xlink:href="#DejaVuSans-6f" x="151.953125"/>
      <use xlink:href="#DejaVuSans-77" x="213.134766"/>
      <use xlink:href="#DejaVuSans-5f" x="294.921875"/>
      <use xlink:href="#DejaVuSans-77" x="344.921875"/>
      <use xlink:href="#DejaVuSans-69" x="426.708984"/>
      <use xlink:href="#DejaVuSans-74" x="454.492188"/>
      <use xlink:href="#DejaVuSans-68" x="493.701172"/>
      <use xlink:href="#DejaVuSans-5f" x="557.080078"/>
      <use xlink:href="#DejaVuSans-75" x="607.080078"/>
      <use xlink:href="#DejaVuSans-73" x="670.458984"/>
      <use xlink:href="#DejaVuSans-65" x="722.558594"/>
      <use xlink:href="#DejaVuSans-72" x="784.082031"/>
      <use xlink:href="#DejaVuSans-6e" x="823.445312"/>
      <use xlink:href="#DejaVuSans-61" x="886.824219"/>
      <use xlink:href="#DejaVuSans-6d" x="948.103516"/>
      <use xlink:href="#DejaVuSans-65" x="1045.515625"/>
      <use xlink:href="#DejaVuSans-5f" x="1107.039062"/>
      <use xlink:href="#DejaVuSans-73" x="1157.039062"/>
      <use xlink:href="#DejaVuSans-65" x="1209.138672"/>
      <use xlink:href="#DejaVuSans-72" x="1270.662109"/>
      <use xlink:href="#DejaVuSans-76" x="1311.775391"/>
      <use xlink:href="#DejaVuSans-65" x="1370.955078"/>
      <use xlink:href="#DejaVuSans-72" x="1432.478516"/>
     </g>
    </g>
   </g>
   <g id="text_7">
    <g clip-path="url(#p2211791322)">
     <!-- mongo_update_client -->
     <g transform="translate(147.477629 74.507031) scale(0.06 -0.06)">
      <use xlink:href="#DejaVuSans-6d"/>
      <use xlink:href="#DejaVuSans-6f" x="97.412109"/>
      <use xlink:href="#DejaVuSans-6e" x="158.59375"/>
      <use xlink:href="#DejaVuSans-67" x="221.972656"/>
      <use xlink:href="#DejaVuSans-6f" x="285.449219"/>
      <use xlink:href="#DejaVuSans-5f" x="346.630859"/>
      <use xlink:href="#DejaVuSans-75" x="396.630859"/>
      <use xlink:href="#DejaVuSans-70" x="460.009766"/>
      <use xlink:href="#DejaVuSans-64" x="523.486328"/>
      <use xlink:href="#DejaVuSans-61" x="586.962891"/>
      <use xlink:href="#DejaVuSans-74" x="648.242188"/>
      <use xlink:href="#DejaVuSans-65" x="687.451172"/>
      <use xlink:href="#DejaVuSans-5f" x="748.974609"/>
      <use xlink:href="#DejaVuSans-63" x="798.974609"/>
      <use xlink:href="#DejaVuSans-6c" x="853.955078"/>
      <use xlink:href="#DejaVuSans-69" x="881.738281"/>
      <use xlink:href="#DejaVuSans-65" x="909.521484"/>
      <use xlink:href="#DejaVuSans-6e" x="971.044922"/>
      <use xlink:href="#DejaVuSans-74" x="1034.423828"/>
     </g>
    </g>
   </g>
   <g id="text_8">
    <g clip-path="url(#p2211791322)">
     <!-- social_graph_mongo_update_client -->
     <g transform="translate(79.267079 98.344156) scale(0.06 -0.06)">
      <use xlink:href="#DejaVuSans-73"/>
      <use xlink:href="#DejaVuSans-6f" x="52.099609"/>
      <use xlink:href="#DejaVuSans-63" x="113.28125"/>
      <use xlink:href="#DejaVuSans-69" x="168.261719"/>
      <use xlink:href="#DejaVuSans-61" x="196.044922"/>
      <use xlink:href="#DejaVuSans-6c" x="257.324219"/>
      <use xlink:href="#DejaVuSans-5f" x="285.107422"/>
      <use xlink:href="#DejaVuSans-67" x="335.107422"/>
      <use xlink:href="#DejaVuSans-72" x="398.583984"/>
      <use xlink:href="#DejaVuSans-61" x="439.697266"/>
      <use xlink:href="#DejaVuSans-70" x="500.976562"/>
      <use xlink:href="#DejaVuSans-68" x="564.453125"/>
      <use xlink:href="#DejaVuSans-5f" x="627.832031"/>
      <use xlink:href="#DejaVuSans-6d" x="677.832031"/>
      <use xlink:href="#DejaVuSans-6f" x="775.244141"/>
      <use xlink:href="#DejaVuSans-6e" x="836.425781"/>
      <use xlink:href="#DejaVuSans-67" x="899.804688"/>
      <use xlink:href="#DejaVuSans-6f" x="963.28125"/>
      <use xlink:href="#DejaVuSans-5f" x="1024.462891"/>
      <use xlink:href="#DejaVuSans-75" x="1074.462891"/>
      <use xlink:href="#DejaVuSans-70" x="1137.841797"/>
      <use xlink:href="#DejaVuSans-64" x="1201.318359"/>
      <use xlink:href="#DejaVuSans-61" x="1264.794922"/>
      <use xlink:href="#DejaVuSans-74" x="1326.074219"/>
      <use xlink:href="#DejaVuSans-65" x="1365.283203"/>
      <use xlink:href="#DejaVuSans-5f" x="1426.806641"/>
      <use xlink:href="#DejaVuSans-63" x="1476.806641"/>
      <use xlink:href="#DejaVuSans-6c" x="1531.787109"/>
      <use xlink:href="#DejaVuSans-69" x="1559.570312"/>
      <use xlink:href="#DejaVuSans-65" x="1587.353516"/>
      <use xlink:href="#DejaVuSans-6e" x="1648.876953"/>
      <use xlink:href="#DejaVuSans-74" x="1712.255859"/>
     </g>
    </g>
   </g>
   <g id="text_9">
    <g clip-path="url(#p2211791322)">
     <!-- get_user_id_server -->
     <g transform="translate(71.618185 134.01892) scale(0.06 -0.06)">
      <use xlink:href="#DejaVuSans-67"/>
      <use xlink:href="#DejaVuSans-65" x="63.476562"/>
      <use xlink:href="#DejaVuSans-74" x="125"/>
      <use xlink:href="#DejaVuSans-5f" x="164.208984"/>
      <use xlink:href="#DejaVuSans-75" x="214.208984"/>
      <use xlink:href="#DejaVuSans-73" x="277.587891"/>
      <use xlink:href="#DejaVuSans-65" x="329.6875"/>
      <use xlink:href="#DejaVuSans-72" x="391.210938"/>
      <use xlink:href="#DejaVuSans-5f" x="432.324219"/>
      <use xlink:href="#DejaVuSans-69" x="482.324219"/>
      <use xlink:href="#DejaVuSans-64" x="510.107422"/>
      <use xlink:href="#DejaVuSans-5f" x="573.583984"/>
      <use xlink:href="#DejaVuSans-73" x="623.583984"/>
      <use xlink:href="#DejaVuSans-65" x="675.683594"/>
      <use xlink:href="#DejaVuSans-72" x="737.207031"/>
      <use xlink:href="#DejaVuSans-76" x="778.320312"/>
      <use xlink:href="#DejaVuSans-65" x="837.5"/>
      <use xlink:href="#DejaVuSans-72" x="899.023438"/>
     </g>
    </g>
   </g>
   <g id="text_10">
    <g clip-path="url(#p2211791322)">
     <!-- user_mmc_get_user_id_client -->
     <g transform="translate(55.838185 218.181452) scale(0.06 -0.06)">
      <use xlink:href="#DejaVuSans-75"/>
      <use xlink:href="#DejaVuSans-73" x="63.378906"/>
      <use xlink:href="#DejaVuSans-65" x="115.478516"/>
      <use xlink:href="#DejaVuSans-72" x="177.001953"/>
      <use xlink:href="#DejaVuSans-5f" x="218.115234"/>
      <use xlink:href="#DejaVuSans-6d" x="268.115234"/>
      <use xlink:href="#DejaVuSans-6d" x="365.527344"/>
      <use xlink:href="#DejaVuSans-63" x="462.939453"/>
      <use xlink:href="#DejaVuSans-5f" x="517.919922"/>
      <use xlink:href="#DejaVuSans-67" x="567.919922"/>
      <use xlink:href="#DejaVuSans-65" x="631.396484"/>
      <use xlink:href="#DejaVuSans-74" x="692.919922"/>
      <use xlink:href="#DejaVuSans-5f" x="732.128906"/>
      <use xlink:href="#DejaVuSans-75" x="782.128906"/>
      <use xlink:href="#DejaVuSans-73" x="845.507812"/>
      <use xlink:href="#DejaVuSans-65" x="897.607422"/>
      <use xlink:href="#DejaVuSans-72" x="959.130859"/>
      <use xlink:href="#DejaVuSans-5f" x="1000.244141"/>
      <use xlink:href="#DejaVuSans-69" x="1050.244141"/>
      <use xlink:href="#DejaVuSans-64" x="1078.027344"/>
      <use xlink:href="#DejaVuSans-5f" x="1141.503906"/>
      <use xlink:href="#DejaVuSans-63" x="1191.503906"/>
      <use xlink:href="#DejaVuSans-6c" x="1246.484375"/>
      <use xlink:href="#DejaVuSans-69" x="1274.267578"/>
      <use xlink:href="#DejaVuSans-65" x="1302.050781"/>
      <use xlink:href="#DejaVuSans-6e" x="1363.574219"/>
      <use xlink:href="#DejaVuSans-74" x="1426.953125"/>
     </g>
    </g>
   </g>
   <g id="text_11">
    <g clip-path="url(#p2211791322)">
     <!-- user_mmc_get_user_id_client -->
     <g transform="translate(87.827382 253.856213) scale(0.06 -0.06)">
      <use xlink:href="#DejaVuSans-75"/>
      <use xlink:href="#DejaVuSans-73" x="63.378906"/>
      <use xlink:href="#DejaVuSans-65" x="115.478516"/>
      <use xlink:href="#DejaVuSans-72" x="177.001953"/>
      <use xlink:href="#DejaVuSans-5f" x="218.115234"/>
      <use xlink:href="#DejaVuSans-6d" x="268.115234"/>
      <use xlink:href="#DejaVuSans-6d" x="365.527344"/>
      <use xlink:href="#DejaVuSans-63" x="462.939453"/>
      <use xlink:href="#DejaVuSans-5f" x="517.919922"/>
      <use xlink:href="#DejaVuSans-67" x="567.919922"/>
      <use xlink:href="#DejaVuSans-65" x="631.396484"/>
      <use xlink:href="#DejaVuSans-74" x="692.919922"/>
      <use xlink:href="#DejaVuSans-5f" x="732.128906"/>
      <use xlink:href="#DejaVuSans-75" x="782.128906"/>
      <use xlink:href="#DejaVuSans-73" x="845.507812"/>
      <use xlink:href="#DejaVuSans-65" x="897.607422"/>
      <use xlink:href="#DejaVuSans-72" x="959.130859"/>
      <use xlink:href="#DejaVuSans-5f" x="1000.244141"/>
      <use xlink:href="#DejaVuSans-69" x="1050.244141"/>
      <use xlink:href="#DejaVuSans-64" x="1078.027344"/>
      <use xlink:href="#DejaVuSans-5f" x="1141.503906"/>
      <use xlink:href="#DejaVuSans-63" x="1191.503906"/>
      <use xlink:href="#DejaVuSans-6c" x="1246.484375"/>
      <use xlink:href="#DejaVuSans-69" x="1274.267578"/>
      <use xlink:href="#DejaVuSans-65" x="1302.050781"/>
      <use xlink:href="#DejaVuSans-6e" x="1363.574219"/>
      <use xlink:href="#DejaVuSans-74" x="1426.953125"/>
     </g>
    </g>
   </g>
   <g id="text_12">
    <g clip-path="url(#p2211791322)">
     <!-- user_mongo_find_client -->
     <g transform="translate(144.30979 277.693331) scale(0.06 -0.06)">
      <use xlink:href="#DejaVuSans-75"/>
      <use xlink:href="#DejaVuSans-73" x="63.378906"/>
      <use xlink:href="#DejaVuSans-65" x="115.478516"/>
      <use xlink:href="#DejaVuSans-72" x="177.001953"/>
      <use xlink:href="#DejaVuSans-5f" x="218.115234"/>
      <use xlink:href="#DejaVuSans-6d" x="268.115234"/>
      <use xlink:href="#DejaVuSans-6f" x="365.527344"/>
      <use xlink:href="#DejaVuSans-6e" x="426.708984"/>
      <use xlink:href="#DejaVuSans-67" x="490.087891"/>
      <use xlink:href="#DejaVuSans-6f" x="553.564453"/>
      <use xlink:href="#DejaVuSans-5f" x="614.746094"/>
      <use xlink:href="#DejaVuSans-66" x="664.746094"/>
      <use xlink:href="#DejaVuSans-69" x="699.951172"/>
      <use xlink:href="#DejaVuSans-6e" x="727.734375"/>
      <use xlink:href="#DejaVuSans-64" x="791.113281"/>
      <use xlink:href="#DejaVuSans-5f" x="854.589844"/>
      <use xlink:href="#DejaVuSans-63" x="904.589844"/>
      <use xlink:href="#DejaVuSans-6c" x="959.570312"/>
      <use xlink:href="#DejaVuSans-69" x="987.353516"/>
      <use xlink:href="#DejaVuSans-65" x="1015.136719"/>
      <use xlink:href="#DejaVuSans-6e" x="1076.660156"/>
      <use xlink:href="#DejaVuSans-74" x="1140.039062"/>
     </g>
    </g>
   </g>
   <g id="text_13">
    <g clip-path="url(#p2211791322)">
     <!-- user_mmc_set_client -->
     <g transform="translate(204.798283 286.063824) scale(0.06 -0.06)">
      <use xlink:href="#DejaVuSans-75"/>
      <use xlink:href="#DejaVuSans-73" x="63.378906"/>
      <use xlink:href="#DejaVuSans-65" x="115.478516"/>
      <use xlink:href="#DejaVuSans-72" x="177.001953"/>
      <use xlink:href="#DejaVuSans-5f" x="218.115234"/>
      <use xlink:href="#DejaVuSans-6d" x="268.115234"/>
      <use xlink:href="#DejaVuSans-6d" x="365.527344"/>
      <use xlink:href="#DejaVuSans-63" x="462.939453"/>
      <use xlink:href="#DejaVuSans-5f" x="517.919922"/>
      <use xlink:href="#DejaVuSans-73" x="567.919922"/>
      <use xlink:href="#DejaVuSans-65" x="620.019531"/>
      <use xlink:href="#DejaVuSans-74" x="681.542969"/>
      <use xlink:href="#DejaVuSans-5f" x="720.751953"/>
      <use xlink:href="#DejaVuSans-63" x="770.751953"/>
      <use xlink:href="#DejaVuSans-6c" x="825.732422"/>
      <use xlink:href="#DejaVuSans-69" x="853.515625"/>
      <use xlink:href="#DejaVuSans-65" x="881.298828"/>
      <use xlink:href="#DejaVuSans-6e" x="942.822266"/>
      <use xlink:href="#DejaVuSans-74" x="1006.201172"/>
     </g>
    </g>
   </g>
   <g id="text_14">
    <g clip-path="url(#p2211791322)">
     <!-- get_user_id_server -->
     <g transform="translate(60.385065 176.100197) scale(0.06 -0.06)">
      <use xlink:href="#DejaVuSans-67"/>
      <use xlink:href="#DejaVuSans-65" x="63.476562"/>
      <use xlink:href="#DejaVuSans-74" x="125"/>
      <use xlink:href="#DejaVuSans-5f" x="164.208984"/>
      <use xlink:href="#DejaVuSans-75" x="214.208984"/>
      <use xlink:href="#DejaVuSans-73" x="277.587891"/>
      <use xlink:href="#DejaVuSans-65" x="329.6875"/>
      <use xlink:href="#DejaVuSans-72" x="391.210938"/>
      <use xlink:href="#DejaVuSans-5f" x="432.324219"/>
      <use xlink:href="#DejaVuSans-69" x="482.324219"/>
      <use xlink:href="#DejaVuSans-64" x="510.107422"/>
      <use xlink:href="#DejaVuSans-5f" x="573.583984"/>
      <use xlink:href="#DejaVuSans-73" x="623.583984"/>
      <use xlink:href="#DejaVuSans-65" x="675.683594"/>
      <use xlink:href="#DejaVuSans-72" x="737.207031"/>
      <use xlink:href="#DejaVuSans-76" x="778.320312"/>
      <use xlink:href="#DejaVuSans-65" x="837.5"/>
      <use xlink:href="#DejaVuSans-72" x="899.023438"/>
     </g>
    </g>
   </g>
   <g id="text_15">
    <g clip-path="url(#p2211791322)">
     <!-- user_mongo_find_client -->
     <g transform="translate(257.25521 277.693331) scale(0.06 -0.06)">
      <use xlink:href="#DejaVuSans-75"/>
      <use xlink:href="#DejaVuSans-73" x="63.378906"/>
      <use xlink:href="#DejaVuSans-65" x="115.478516"/>
      <use xlink:href="#DejaVuSans-72" x="177.001953"/>
      <use xlink:href="#DejaVuSans-5f" x="218.115234"/>
      <use xlink:href="#DejaVuSans-6d" x="268.115234"/>
      <use xlink:href="#DejaVuSans-6f" x="365.527344"/>
      <use xlink:href="#DejaVuSans-6e" x="426.708984"/>
      <use xlink:href="#DejaVuSans-67" x="490.087891"/>
      <use xlink:href="#DejaVuSans-6f" x="553.564453"/>
      <use xlink:href="#DejaVuSans-5f" x="614.746094"/>
      <use xlink:href="#DejaVuSans-66" x="664.746094"/>
      <use xlink:href="#DejaVuSans-69" x="699.951172"/>
      <use xlink:href="#DejaVuSans-6e" x="727.734375"/>
      <use xlink:href="#DejaVuSans-64" x="791.113281"/>
      <use xlink:href="#DejaVuSans-5f" x="854.589844"/>
      <use xlink:href="#DejaVuSans-63" x="904.589844"/>
      <use xlink:href="#DejaVuSans-6c" x="959.570312"/>
      <use xlink:href="#DejaVuSans-69" x="987.353516"/>
      <use xlink:href="#DejaVuSans-65" x="1015.136719"/>
      <use xlink:href="#DejaVuSans-6e" x="1076.660156"/>
      <use xlink:href="#DejaVuSans-74" x="1140.039062"/>
     </g>
    </g>
   </g>
   <g id="text_16">
    <g clip-path="url(#p2211791322)">
     <!-- user_mmc_set_client -->
     <g transform="translate(309.146185 253.856232) scale(0.06 -0.06)">
      <use xlink:href="#DejaVuSans-75"/>
      <use xlink:href="#DejaVuSans-73" x="63.378906"/>
      <use xlink:href="#DejaVuSans-65" x="115.478516"/>
      <use xlink:href="#DejaVuSans-72" x="177.001953"/>
      <use xlink:href="#DejaVuSans-5f" x="218.115234"/>
      <use xlink:href="#DejaVuSans-6d" x="268.115234"/>
      <use xlink:href="#DejaVuSans-6d" x="365.527344"/>
      <use xlink:href="#DejaVuSans-63" x="462.939453"/>
      <use xlink:href="#DejaVuSans-5f" x="517.919922"/>
      <use xlink:href="#DejaVuSans-73" x="567.919922"/>
      <use xlink:href="#DejaVuSans-65" x="620.019531"/>
      <use xlink:href="#DejaVuSans-74" x="681.542969"/>
      <use xlink:href="#DejaVuSans-5f" x="720.751953"/>
      <use xlink:href="#DejaVuSans-63" x="770.751953"/>
      <use xlink:href="#DejaVuSans-6c" x="825.732422"/>
      <use xlink:href="#DejaVuSans-69" x="853.515625"/>
      <use xlink:href="#DejaVuSans-65" x="881.298828"/>
      <use xlink:href="#DejaVuSans-6e" x="942.822266"/>
      <use xlink:href="#DejaVuSans-74" x="1006.201172"/>
     </g>
    </g>
   </g>
  </g>
 </g>
 <defs>
  <clipPath id="p2211791322">
   <rect x="57.6" y="41.472" width="357.12" height="266.112"/>
  </clipPath>
 </defs>
</svg>
